<?xml version="1.0" encoding="UTF-8"?>
<!DOCTYPE svg PUBLIC "-//W3C//DTD SVG 1.1//EN" "http://www.w3.org/Graphics/SVG/1.1/DTD/svg11.dtd">
<svg xmlns="http://www.w3.org/2000/svg" version="1.1" width="400px" height="400px" style="shape-rendering:geometricPrecision; text-rendering:geometricPrecision; image-rendering:optimizeQuality; fill-rule:evenodd; clip-rule:evenodd" xmlns:xlink="http://www.w3.org/1999/xlink">
<g><path style="opacity:1" fill="#a3611b" d="M 174.5,-0.5 C 191.167,-0.5 207.833,-0.5 224.5,-0.5C 295.936,10.8919 348.102,48.5586 381,112.5C 390.025,132.319 396.191,152.986 399.5,174.5C 399.5,191.167 399.5,207.833 399.5,224.5C 395.455,251.012 386.955,276.012 374,299.5C 370.736,303.328 366.569,304.495 361.5,303C 358.257,300.905 354.923,299.071 351.5,297.5C 354.167,292.167 356.833,286.833 359.5,281.5C 361.068,283.931 362.568,283.931 364,281.5C 382.901,241.158 387.567,199.158 378,155.5C 374.477,141.371 369.144,128.038 362,115.5C 361.292,116.381 360.458,117.047 359.5,117.5C 356.737,112.299 353.737,107.299 350.5,102.5C 351.429,101.685 352.429,100.852 353.5,100C 339,78.1667 320.833,60 299,45.5C 298.148,46.5707 297.315,47.5707 296.5,48.5C 291.632,45.5662 286.632,42.8995 281.5,40.5C 281.511,38.9826 282.177,37.8159 283.5,37C 266.345,27.5029 248.012,21.1696 228.5,18C 150.648,9.45366 89.6479,36.787 45.5,100C 46.5707,100.852 47.5707,101.685 48.5,102.5C 46.1005,107.632 43.4338,112.632 40.5,117.5C 38.9826,117.489 37.8159,116.823 37,115.5C 27.5029,132.655 21.1696,150.988 18,170.5C 9.45366,248.352 36.787,309.352 100,353.5C 100.852,352.429 101.685,351.429 102.5,350.5C 107.299,353.737 112.299,356.737 117.5,359.5C 115.069,361.068 115.069,362.568 117.5,364C 162.534,384.77 208.868,388.104 256.5,374C 284.611,364.534 309.111,349.368 330,328.5C 341.731,325.236 345.731,329.569 342,341.5C 315.057,367.734 283.223,385.567 246.5,395C 238.919,395.949 231.586,397.449 224.5,399.5C 207.833,399.5 191.167,399.5 174.5,399.5C 103.064,388.108 50.8975,350.441 18,286.5C 8.97283,266.628 2.80616,245.961 -0.5,224.5C -0.5,207.833 -0.5,191.167 -0.5,174.5C 10.9207,103.018 48.5873,50.8511 112.5,18C 132.319,8.97522 152.986,2.80855 174.5,-0.5 Z M 139.5,207.5 C 140.167,207.5 140.833,207.5 141.5,207.5C 146.167,207.5 150.833,207.5 155.5,207.5C 160.456,226.788 172.456,239.122 191.5,244.5C 191.5,249.167 191.5,253.833 191.5,258.5C 191.5,259.167 191.5,259.833 191.5,260.5C 191.66,262.199 191.494,263.866 191,265.5C 159.167,259 140,239.833 133.5,208C 135.473,207.505 137.473,207.338 139.5,207.5 Z"/></g>
<g><path style="opacity:1" fill="#ad671d" d="M 246.5,48.5 C 200.067,35.1376 156.067,40.8042 114.5,65.5C 114.84,63.321 115.84,61.4877 117.5,60C 156.473,38.4102 197.806,32.7435 241.5,43C 244.079,44.0757 245.746,45.909 246.5,48.5 Z"/></g>
<g><path style="opacity:1" fill="#a7641b" d="M 281.5,40.5 C 286.632,42.8995 291.632,45.5662 296.5,48.5C 296.011,49.9952 295.345,51.3285 294.5,52.5C 289.299,49.737 284.299,46.737 279.5,43.5C 280.167,42.5 280.833,41.5 281.5,40.5 Z"/></g>
<g><path style="opacity:1" fill="#b0691e" d="M 246.5,48.5 C 247.917,51.3404 247.584,54.007 245.5,56.5C 200.381,42.7062 157.715,48.3729 117.5,73.5C 115.018,71.4973 114.018,68.8306 114.5,65.5C 156.067,40.8042 200.067,35.1376 246.5,48.5 Z"/></g>
<g><path style="opacity:1" fill="#ab661c" d="M 279.5,43.5 C 284.299,46.737 289.299,49.737 294.5,52.5C 291.466,56.8891 288.799,61.5557 286.5,66.5C 281.659,63.5788 276.659,60.9121 271.5,58.5C 273.424,53.0239 276.091,48.0239 279.5,43.5 Z"/></g>
<g><path style="opacity:1" fill="#b36b1f" d="M 245.5,56.5 C 245.423,57.7498 244.756,58.5831 243.5,59C 241.5,59.1667 239.5,59.3333 237.5,59.5C 227.635,57.2881 217.635,55.9548 207.5,55.5C 202.167,55.5 196.833,55.5 191.5,55.5C 170.933,55.892 151.933,61.2253 134.5,71.5C 129.576,73.7668 124.909,76.4335 120.5,79.5C 118.615,77.9468 117.615,75.9468 117.5,73.5C 157.715,48.3729 200.381,42.7062 245.5,56.5 Z"/></g>
<g><path style="opacity:1" fill="#b56c20" d="M 191.5,55.5 C 196.833,55.5 202.167,55.5 207.5,55.5C 207.5,56.1667 207.5,56.8333 207.5,57.5C 202.167,57.5 196.833,57.5 191.5,57.5C 191.5,56.8333 191.5,56.1667 191.5,55.5 Z"/></g>
<g><path style="opacity:1" fill="#b86e20" d="M 191.5,57.5 C 196.833,57.5 202.167,57.5 207.5,57.5C 207.5,61.1667 207.5,64.8333 207.5,68.5C 202.167,68.5 196.833,68.5 191.5,68.5C 191.5,64.8333 191.5,61.1667 191.5,57.5 Z"/></g>
<g><path style="opacity:1" fill="#b0691e" d="M 271.5,58.5 C 276.659,60.9121 281.659,63.5788 286.5,66.5C 285.066,69.0472 283.4,71.3805 281.5,73.5C 277.493,69.8255 272.827,67.1588 267.5,65.5C 268.079,62.6689 269.412,60.3356 271.5,58.5 Z"/></g>
<g><path style="opacity:1" fill="#b26b1f" d="M 267.5,65.5 C 272.827,67.1588 277.493,69.8255 281.5,73.5C 273.396,77.0119 268.729,74.3453 267.5,65.5 Z"/></g>
<g><path style="opacity:1" fill="#be7222" d="M 191.5,68.5 C 196.833,68.5 202.167,68.5 207.5,68.5C 207.5,72.8333 207.5,77.1667 207.5,81.5C 202.167,81.5 196.833,81.5 191.5,81.5C 191.5,77.1667 191.5,72.8333 191.5,68.5 Z"/></g>
<g><path style="opacity:1" fill="#b56c20" d="M 134.5,71.5 C 135.167,71.5 135.5,71.8333 135.5,72.5C 130.833,75.1667 126.167,77.8333 121.5,80.5C 120.833,80.5 120.5,80.1667 120.5,79.5C 124.909,76.4335 129.576,73.7668 134.5,71.5 Z"/></g>
<g><path style="opacity:1" fill="#b86e20" d="M 135.5,72.5 C 137.721,75.2519 139.721,78.2519 141.5,81.5C 139.651,82.593 137.984,83.9263 136.5,85.5C 136.158,86.3382 135.492,86.6716 134.5,86.5C 132.326,86.7497 130.659,87.7497 129.5,89.5C 128.391,89.5569 127.391,89.8902 126.5,90.5C 124.792,87.1429 123.125,83.8096 121.5,80.5C 126.167,77.8333 130.833,75.1667 135.5,72.5 Z"/></g>
<g><path style="opacity:1" fill="#ba7120" d="M 141.5,81.5 C 142.338,81.8417 142.672,82.5084 142.5,83.5C 140.5,84.1667 138.5,84.8333 136.5,85.5C 137.984,83.9263 139.651,82.593 141.5,81.5 Z"/></g>
<g><path style="opacity:1" fill="#c27523" d="M 191.5,81.5 C 196.833,81.5 202.167,81.5 207.5,81.5C 207.5,83.1667 207.5,84.8333 207.5,86.5C 202.174,85.2598 196.841,85.2598 191.5,86.5C 191.5,84.8333 191.5,83.1667 191.5,81.5 Z"/></g>
<g><path style="opacity:1" fill="#ac661d" d="M 92.5,82.5 C 78.8301,95.823 67.4967,110.823 58.5,127.5C 53.6229,125.544 48.9563,123.211 44.5,120.5C 47.1667,115.167 49.8333,109.833 52.5,104.5C 56.4273,106.576 60.2607,108.909 64,111.5C 69.5658,102.599 75.8991,94.2652 83,86.5C 85.651,83.924 88.8177,82.5907 92.5,82.5 Z"/></g>
<g><path style="opacity:1" fill="#b0691e" d="M 92.5,82.5 C 95.117,83.7859 97.4504,85.4525 99.5,87.5C 85.5196,100.144 74.1863,114.811 65.5,131.5C 62.6689,130.921 60.3356,129.588 58.5,127.5C 67.4967,110.823 78.8301,95.823 92.5,82.5 Z"/></g>
<g><path style="opacity:1" fill="#bf7322" d="M 168.5,85.5 C 131.87,96.6324 105.703,119.632 90,154.5C 89.187,156.436 88.687,158.436 88.5,160.5C 86.2858,159.608 85.2858,157.942 85.5,155.5C 94.2549,131.788 109.088,112.788 130,98.5C 129.305,96.2558 128.471,93.9225 127.5,91.5C 128.5,91.1667 129.167,90.5 129.5,89.5C 131.674,89.2503 133.341,88.2503 134.5,86.5C 135.492,86.6716 136.158,86.3382 136.5,85.5C 138.5,84.8333 140.5,84.1667 142.5,83.5C 143.907,85.3083 145.074,87.3083 146,89.5C 151.415,86.5625 157.081,84.2292 163,82.5C 165.399,82.6132 167.232,83.6132 168.5,85.5 Z"/></g>
<g><path style="opacity:1" fill="#c07422" d="M 305.5,146.5 C 289.842,114.857 264.842,94.5237 230.5,85.5C 232.516,82.8562 235.183,82.0228 238.5,83C 267.96,93.1454 290.46,111.645 306,138.5C 306.801,141.367 306.634,144.034 305.5,146.5 Z"/></g>
<g><path style="opacity:1" fill="#b0691e" d="M 307.5,82.5 C 331.048,104.764 346.714,131.764 354.5,163.5C 353.44,166.769 351.107,168.435 347.5,168.5C 340.213,136.248 324.547,108.915 300.5,86.5C 302.34,84.3311 304.674,82.9977 307.5,82.5 Z"/></g>
<g><path style="opacity:1" fill="#ac671d" d="M 307.5,82.5 C 310.769,82.8844 313.603,84.2177 316,86.5C 323.101,94.2652 329.434,102.599 335,111.5C 338.739,108.909 342.573,106.576 346.5,104.5C 349.737,109.299 352.737,114.299 355.5,119.5C 351.461,121.514 347.795,124.014 344.5,127C 349.009,136.862 352.842,147.029 356,157.5C 356.738,159.881 356.238,161.881 354.5,163.5C 346.714,131.764 331.048,104.764 307.5,82.5 Z"/></g>
<g><path style="opacity:1" fill="#c27523" d="M 168.5,85.5 C 170.201,86.2114 171.201,87.5447 171.5,89.5C 132.225,100.444 105.892,125.11 92.5,163.5C 90.3812,163.532 89.0478,162.532 88.5,160.5C 88.687,158.436 89.187,156.436 90,154.5C 105.703,119.632 131.87,96.6324 168.5,85.5 Z"/></g>
<g><path style="opacity:1" fill="#c57724" d="M 207.5,86.5 C 207.327,91.5968 204.661,93.9301 199.5,93.5C 194.339,93.9301 191.673,91.5968 191.5,86.5C 196.841,85.2598 202.174,85.2598 207.5,86.5 Z"/></g>
<g><path style="opacity:1" fill="#c27523" d="M 230.5,85.5 C 264.842,94.5237 289.842,114.857 305.5,146.5C 305.5,148.5 304.5,149.5 302.5,149.5C 286.414,118.42 261.414,98.4199 227.5,89.5C 227.799,87.5447 228.799,86.2114 230.5,85.5 Z"/></g>
<g><path style="opacity:1" fill="#ba7120" d="M 134.5,86.5 C 133.341,88.2503 131.674,89.2503 129.5,89.5C 130.659,87.7497 132.326,86.7497 134.5,86.5 Z"/></g>
<g><path style="opacity:1" fill="#b36b1f" d="M 300.5,86.5 C 324.547,108.915 340.213,136.248 347.5,168.5C 344.441,168.203 341.941,166.87 340,164.5C 332.54,137.889 319.206,114.889 300,95.5C 299.195,92.3035 299.362,89.3035 300.5,86.5 Z"/></g>
<g><path style="opacity:1" fill="#b26b1f" d="M 99.5,87.5 C 99.6641,90.1873 99.4974,92.854 99,95.5C 94.6442,100.854 89.9775,105.854 85,110.5C 81.3426,116.477 77.676,122.477 74,128.5C 71.6954,130.93 68.8621,131.93 65.5,131.5C 74.1863,114.811 85.5196,100.144 99.5,87.5 Z"/></g>
<g><path style="opacity:1" fill="#ba7120" d="M 129.5,89.5 C 129.167,90.5 128.5,91.1667 127.5,91.5C 126.833,91.5 126.5,91.1667 126.5,90.5C 127.391,89.8902 128.391,89.5569 129.5,89.5 Z"/></g>
<g><path style="opacity:1" fill="#c57724" d="M 171.5,89.5 C 171.829,92.2282 171.163,94.5615 169.5,96.5C 136.188,106.816 113.188,128.149 100.5,160.5C 98.6143,163.099 95.9476,164.099 92.5,163.5C 105.892,125.11 132.225,100.444 171.5,89.5 Z"/></g>
<g><path style="opacity:1" fill="#c57724" d="M 227.5,89.5 C 261.414,98.4199 286.414,118.42 302.5,149.5C 299.833,150.833 297.167,150.833 294.5,149.5C 280.395,122.744 258.729,105.077 229.5,96.5C 228.076,94.4855 227.41,92.1522 227.5,89.5 Z"/></g>
<g><path style="opacity:1" fill="#c87925" d="M 169.5,96.5 C 169.631,97.3764 169.298,98.0431 168.5,98.5C 145.357,106.185 127.024,119.852 113.5,139.5C 114.357,140.425 115.357,141.092 116.5,141.5C 113.057,146.051 110.39,151.051 108.5,156.5C 106.83,156.249 105.33,155.582 104,154.5C 103.284,156.879 102.117,158.879 100.5,160.5C 113.188,128.149 136.188,106.816 169.5,96.5 Z"/></g>
<g><path style="opacity:1" fill="#c87925" d="M 229.5,96.5 C 258.729,105.077 280.395,122.744 294.5,149.5C 292.983,149.489 291.816,148.823 291,147.5C 285.324,137.758 278.491,129.091 270.5,121.5C 267.048,118.601 263.382,115.934 259.5,113.5C 258.818,114.243 258.151,114.909 257.5,115.5C 252.659,112.579 247.659,109.912 242.5,107.5C 243.028,106.279 243.695,105.113 244.5,104C 240.167,102.333 235.833,100.667 231.5,99C 230.244,98.5831 229.577,97.7498 229.5,96.5 Z"/></g>
<g><path style="opacity:1" fill="#a7641b" d="M 48.5,102.5 C 49.9952,102.989 51.3285,103.655 52.5,104.5C 49.8333,109.833 47.1667,115.167 44.5,120.5C 43.1667,119.5 41.8333,118.5 40.5,117.5C 43.4338,112.632 46.1005,107.632 48.5,102.5 Z"/></g>
<g><path style="opacity:1" fill="#a7641b" d="M 350.5,102.5 C 353.737,107.299 356.737,112.299 359.5,117.5C 357.938,117.733 356.605,118.4 355.5,119.5C 352.737,114.299 349.737,109.299 346.5,104.5C 347.671,103.655 349.005,102.989 350.5,102.5 Z"/></g>
<g><path style="opacity:1" fill="#cb7b26" d="M 242.5,107.5 C 247.659,109.912 252.659,112.579 257.5,115.5C 257.34,117.153 256.674,118.486 255.5,119.5C 250.368,117.1 245.368,114.434 240.5,111.5C 241.167,110.167 241.833,108.833 242.5,107.5 Z"/></g>
<g><path style="opacity:1" fill="#cd7d26" d="M 240.5,111.5 C 245.368,114.434 250.368,117.1 255.5,119.5C 255.167,120.167 254.833,120.833 254.5,121.5C 249.517,118.862 244.517,116.195 239.5,113.5C 239.328,112.508 239.662,111.842 240.5,111.5 Z"/></g>
<g><path style="opacity:1" fill="#d17f27" d="M 239.5,113.5 C 244.517,116.195 249.517,118.862 254.5,121.5C 252.757,124.877 251.091,128.21 249.5,131.5C 244.159,128.497 238.825,125.497 233.5,122.5C 235.436,119.544 237.436,116.544 239.5,113.5 Z"/></g>
<g><path style="opacity:1" fill="#d68228" d="M 233.5,122.5 C 238.825,125.497 244.159,128.497 249.5,131.5C 258.549,138.723 266.049,147.39 272,157.5C 272.309,158.766 272.809,159.933 273.5,161C 273.05,163.533 272.05,165.7 270.5,167.5C 253.744,135.955 227.41,121.122 191.5,123C 152.667,129.833 129.833,152.667 123,191.5C 120.571,221.133 131.071,244.967 154.5,263C 184.743,282.162 215.076,282.329 245.5,263.5C 245.654,267.025 244.321,269.859 241.5,272C 222.06,282.349 201.394,285.349 179.5,281C 160.152,275.465 144.152,264.965 131.5,249.5C 128.497,244.159 125.497,238.825 122.5,233.5C 114.528,211.136 114.528,188.802 122.5,166.5C 125.798,160.856 129.131,155.189 132.5,149.5C 152.11,124.217 178.11,113.384 210.5,117C 218.323,118.106 225.989,119.939 233.5,122.5 Z"/></g>
<g><path style="opacity:1" fill="#d98429" d="M 270.5,167.5 C 269.341,169.25 267.674,170.25 265.5,170.5C 252.656,142.875 230.822,128.542 200,127.5C 166.036,129.143 143.036,145.809 131,177.5C 122.229,210.519 131.063,237.686 157.5,259C 186.064,277.148 214.398,276.981 242.5,258.5C 244.727,259.401 245.727,261.067 245.5,263.5C 215.076,282.329 184.743,282.162 154.5,263C 131.071,244.967 120.571,221.133 123,191.5C 129.833,152.667 152.667,129.833 191.5,123C 227.41,121.122 253.744,135.955 270.5,167.5 Z"/></g>
<g><path style="opacity:1" fill="#dc862a" d="M 265.5,170.5 C 263.801,170.66 262.134,170.494 260.5,170C 252.026,156.526 240.692,146.192 226.5,139C 194.702,126.783 168.035,133.617 146.5,159.5C 139.831,168.982 135.497,179.482 133.5,191C 135.473,191.495 137.473,191.662 139.5,191.5C 139.5,196.833 139.5,202.167 139.5,207.5C 137.473,207.338 135.473,207.505 133.5,208C 140,239.833 159.167,259 191,265.5C 191.494,263.866 191.66,262.199 191.5,260.5C 196.833,260.5 202.167,260.5 207.5,260.5C 207.34,262.199 207.506,263.866 208,265.5C 216.419,264.249 224.253,261.416 231.5,257C 233.333,256.833 235.167,256.667 237,256.5C 239.295,256.547 241.129,257.213 242.5,258.5C 214.398,276.981 186.064,277.148 157.5,259C 131.063,237.686 122.229,210.519 131,177.5C 143.036,145.809 166.036,129.143 200,127.5C 230.822,128.542 252.656,142.875 265.5,170.5 Z"/></g>
<g><path style="opacity:1" fill="#cb7b26" d="M 116.5,141.5 C 118.23,142.026 119.564,143.026 120.5,144.5C 117.5,149.167 114.5,153.833 111.5,158.5C 110.29,158.068 109.29,157.401 108.5,156.5C 110.39,151.051 113.057,146.051 116.5,141.5 Z"/></g>
<g><path style="opacity:1" fill="#cd7d26" d="M 120.5,144.5 C 121.492,144.328 122.158,144.662 122.5,145.5C 119.331,149.833 116.664,154.5 114.5,159.5C 113.209,159.737 112.209,159.404 111.5,158.5C 114.5,153.833 117.5,149.167 120.5,144.5 Z"/></g>
<g><path style="opacity:1" fill="#d17f27" d="M 122.5,145.5 C 124.937,145.886 126.937,147.053 128.5,149C 129.793,149.49 131.127,149.657 132.5,149.5C 129.131,155.189 125.798,160.856 122.5,166.5C 122.586,165.504 122.252,164.671 121.5,164C 118.743,163.062 116.41,161.562 114.5,159.5C 116.664,154.5 119.331,149.833 122.5,145.5 Z"/></g>
<g><path style="opacity:1" fill="#b0691e" d="M 56.5,153.5 C 38.5896,218.597 54.9229,273.43 105.5,318C 113.688,324.26 122.354,329.76 131.5,334.5C 130.525,336.795 129.192,338.795 127.5,340.5C 86.6946,319.509 59.8613,286.842 47,242.5C 39.2798,212.339 39.7798,182.339 48.5,152.5C 51.3404,151.083 54.007,151.416 56.5,153.5 Z"/></g>
<g><path style="opacity:1" fill="#ad671d" d="M 48.5,152.5 C 39.7798,182.339 39.2798,212.339 47,242.5C 59.8613,286.842 86.6946,319.509 127.5,340.5C 125.576,345.976 122.909,350.976 119.5,355.5C 114.299,352.737 109.299,349.737 104.5,346.5C 106.576,342.573 108.909,338.739 111.5,335C 58.8836,298.925 34.717,248.758 39,184.5C 39.429,175.357 40.7623,166.357 43,157.5C 44.0757,154.921 45.909,153.254 48.5,152.5 Z"/></g>
<g><path style="opacity:1" fill="#b36b1f" d="M 56.5,153.5 C 57.7498,153.577 58.5831,154.244 59,155.5C 59.1667,157.5 59.3333,159.5 59.5,161.5C 57.2881,171.365 55.9548,181.365 55.5,191.5C 55.5,196.833 55.5,202.167 55.5,207.5C 59.8717,259.544 84.3717,298.878 129,325.5C 131.105,328.107 131.938,331.107 131.5,334.5C 122.354,329.76 113.688,324.26 105.5,318C 54.9229,273.43 38.5896,218.597 56.5,153.5 Z"/></g>
<g><path style="opacity:1" fill="#e98e2d" d="M 207.5,161.5 C 175.203,160.63 160.037,176.296 162,208.5C 169.261,231.059 184.761,240.892 208.5,238C 230.907,230.721 240.907,215.221 238.5,191.5C 240.5,191.5 242.5,191.5 244.5,191.5C 245.787,196.864 245.787,202.198 244.5,207.5C 240.592,219.942 233.258,230.109 222.5,238C 217.495,240.49 212.495,242.656 207.5,244.5C 202.198,245.787 196.864,245.787 191.5,244.5C 172.456,239.122 160.456,226.788 155.5,207.5C 154.213,202.198 154.213,196.864 155.5,191.5C 161.122,170.046 174.955,158.046 197,155.5C 202.52,154.334 206.02,156.334 207.5,161.5 Z"/></g>
<g><path style="opacity:1" fill="#eb902e" d="M 207.5,161.5 C 207.889,164.553 207.223,167.22 205.5,169.5C 178.246,169.92 166.746,183.587 171,210.5C 179.099,227.298 192.265,233.464 210.5,229C 225.97,221.886 232.304,210.053 229.5,193.5C 232.123,191.735 235.123,191.068 238.5,191.5C 240.907,215.221 230.907,230.721 208.5,238C 184.761,240.892 169.261,231.059 162,208.5C 160.037,176.296 175.203,160.63 207.5,161.5 Z"/></g>
<g><path style="opacity:1" fill="#ee922e" d="M 205.5,169.5 C 198.917,171.559 192.251,173.725 185.5,176C 171.212,187.147 168.712,200.647 178,216.5C 189.545,227.979 202.378,229.479 216.5,221C 218.766,218.609 220.933,216.109 223,213.5C 225.275,206.749 227.441,200.083 229.5,193.5C 232.304,210.053 225.97,221.886 210.5,229C 192.265,233.464 179.099,227.298 171,210.5C 166.746,183.587 178.246,169.92 205.5,169.5 Z"/></g>
<g><path style="opacity:1" fill="#c57724" d="M 311.5,176.5 C 318.862,216.062 308.862,250.395 281.5,279.5C 279.455,278.077 278.455,276.077 278.5,273.5C 302.571,246.885 311.571,215.885 305.5,180.5C 307.118,178.684 309.118,177.351 311.5,176.5 Z"/></g>
<g><path style="opacity:1" fill="#c27523" d="M 311.5,176.5 C 313.117,177.038 314.784,177.371 316.5,177.5C 323.284,217.134 313.284,251.8 286.5,281.5C 284.447,281.598 282.78,280.931 281.5,279.5C 308.862,250.395 318.862,216.062 311.5,176.5 Z"/></g>
<g><path style="opacity:1" fill="#bf7322" d="M 316.5,177.5 C 317.794,178.29 318.961,179.29 320,180.5C 320.936,184.114 321.436,187.78 321.5,191.5C 324.5,191.5 327.5,191.5 330.5,191.5C 330.5,196.833 330.5,202.167 330.5,207.5C 327.5,207.5 324.5,207.5 321.5,207.5C 320.001,235.477 310.001,259.811 291.5,280.5C 289.929,281.309 288.262,281.643 286.5,281.5C 313.284,251.8 323.284,217.134 316.5,177.5 Z"/></g>
<g><path style="opacity:1" fill="#c87925" d="M 305.5,180.5 C 311.571,215.885 302.571,246.885 278.5,273.5C 278.34,271.801 278.506,270.134 279,268.5C 281.36,265.64 283.527,262.64 285.5,259.5C 284.757,258.818 284.091,258.151 283.5,257.5C 286.999,253.173 289.999,248.506 292.5,243.5C 293.496,243.414 294.329,243.748 295,244.5C 303.48,226.018 306.314,206.685 303.5,186.5C 304.172,184.47 304.838,182.47 305.5,180.5 Z"/></g>
<g><path style="opacity:1" fill="#b56c20" d="M 55.5,191.5 C 56.1667,191.5 56.8333,191.5 57.5,191.5C 57.5,196.833 57.5,202.167 57.5,207.5C 56.8333,207.5 56.1667,207.5 55.5,207.5C 55.5,202.167 55.5,196.833 55.5,191.5 Z"/></g>
<g><path style="opacity:1" fill="#b86e20" d="M 57.5,191.5 C 61.1667,191.5 64.8333,191.5 68.5,191.5C 68.5,196.833 68.5,202.167 68.5,207.5C 64.8333,207.5 61.1667,207.5 57.5,207.5C 57.5,202.167 57.5,196.833 57.5,191.5 Z"/></g>
<g><path style="opacity:1" fill="#be7222" d="M 68.5,191.5 C 72.8333,191.5 77.1667,191.5 81.5,191.5C 81.5,196.833 81.5,202.167 81.5,207.5C 77.1667,207.5 72.8333,207.5 68.5,207.5C 68.5,202.167 68.5,196.833 68.5,191.5 Z"/></g>
<g><path style="opacity:1" fill="#c27523" d="M 81.5,191.5 C 83.1667,191.5 84.8333,191.5 86.5,191.5C 85.2598,196.841 85.2598,202.174 86.5,207.5C 84.8333,207.5 83.1667,207.5 81.5,207.5C 81.5,202.167 81.5,196.833 81.5,191.5 Z"/></g>
<g><path style="opacity:1" fill="#c57724" d="M 86.5,191.5 C 91.5968,191.673 93.9301,194.339 93.5,199.5C 93.9301,204.661 91.5968,207.327 86.5,207.5C 85.2598,202.174 85.2598,196.841 86.5,191.5 Z"/></g>
<g><path style="opacity:1" fill="#e0892b" d="M 139.5,191.5 C 140.167,191.5 140.833,191.5 141.5,191.5C 140.213,196.864 140.213,202.198 141.5,207.5C 140.833,207.5 140.167,207.5 139.5,207.5C 139.5,202.167 139.5,196.833 139.5,191.5 Z"/></g>
<g><path style="opacity:1" fill="#e48b2c" d="M 141.5,191.5 C 146.167,191.5 150.833,191.5 155.5,191.5C 154.213,196.864 154.213,202.198 155.5,207.5C 150.833,207.5 146.167,207.5 141.5,207.5C 140.213,202.198 140.213,196.864 141.5,191.5 Z"/></g>
<g><path style="opacity:1" fill="#e48b2c" d="M 244.5,191.5 C 249.167,191.5 253.833,191.5 258.5,191.5C 259.787,196.864 259.787,202.198 258.5,207.5C 253.833,207.5 249.167,207.5 244.5,207.5C 245.787,202.198 245.787,196.864 244.5,191.5 Z"/></g>
<g><path style="opacity:1" fill="#e0892b" d="M 258.5,191.5 C 259.167,191.5 259.833,191.5 260.5,191.5C 260.5,196.833 260.5,202.167 260.5,207.5C 259.833,207.5 259.167,207.5 258.5,207.5C 259.787,202.198 259.787,196.864 258.5,191.5 Z"/></g>
<g><path style="opacity:1" fill="#dc862a" d="M 260.5,191.5 C 264.5,191.5 268.5,191.5 272.5,191.5C 273.879,210.332 269.213,227.332 258.5,242.5C 255.59,237.355 256.09,232.355 260,227.5C 262.596,221.163 264.429,214.663 265.5,208C 263.866,207.506 262.199,207.34 260.5,207.5C 260.5,202.167 260.5,196.833 260.5,191.5 Z"/></g>
<g><path style="opacity:1" fill="#d98429" d="M 272.5,191.5 C 274.167,191.5 275.833,191.5 277.5,191.5C 278.734,211.116 274.067,229.116 263.5,245.5C 261.067,245.727 259.401,244.727 258.5,242.5C 269.213,227.332 273.879,210.332 272.5,191.5 Z"/></g>
<g><path style="opacity:1" fill="#d68228" d="M 277.5,191.5 C 279.708,192.023 281.208,193.356 282,195.5C 282.598,203.531 282.265,211.531 281,219.5C 278.789,224.298 277.289,229.298 276.5,234.5C 273.805,239.517 271.138,244.517 268.5,249.5C 266.246,248.876 264.579,247.543 263.5,245.5C 274.067,229.116 278.734,211.116 277.5,191.5 Z"/></g>
<g><path style="opacity:1" fill="#b86e20" d="M 330.5,191.5 C 334.5,191.5 338.5,191.5 342.5,191.5C 342.5,196.833 342.5,202.167 342.5,207.5C 338.5,207.5 334.5,207.5 330.5,207.5C 330.5,202.167 330.5,196.833 330.5,191.5 Z"/></g>
<g><path style="opacity:1" fill="#b56c20" d="M 342.5,191.5 C 343.167,191.5 343.833,191.5 344.5,191.5C 344.822,197.358 344.489,203.025 343.5,208.5C 343.5,207.833 343.167,207.5 342.5,207.5C 342.5,202.167 342.5,196.833 342.5,191.5 Z"/></g>
<g><path style="opacity:1" fill="#b36b1f" d="M 344.5,191.5 C 346.5,191.5 348.5,191.5 350.5,191.5C 351.327,260.033 320.993,309.2 259.5,339C 224.291,353.098 188.625,354.598 152.5,343.5C 154.387,340.051 157.387,338.717 161.5,339.5C 171.365,341.712 181.365,343.045 191.5,343.5C 197.167,344.833 202.833,344.833 208.5,343.5C 228.418,342.746 247.085,337.746 264.5,328.5C 270.35,326.293 275.684,323.293 280.5,319.5C 318.321,292.206 339.321,255.206 343.5,208.5C 344.489,203.025 344.822,197.358 344.5,191.5 Z"/></g>
<g><path style="opacity:1" fill="#b0691e" d="M 350.5,191.5 C 353.553,191.111 356.22,191.777 358.5,193.5C 358.229,264.586 326.229,315.419 262.5,346C 226.457,360.49 189.79,362.324 152.5,351.5C 151.167,348.833 151.167,346.167 152.5,343.5C 188.625,354.598 224.291,353.098 259.5,339C 320.993,309.2 351.327,260.033 350.5,191.5 Z"/></g>
<g><path style="opacity:1" fill="#ad671d" d="M 358.5,193.5 C 359.222,193.918 359.722,194.584 360,195.5C 361.123,222.322 355.957,247.822 344.5,272C 347.795,274.986 351.461,277.486 355.5,279.5C 352.833,284.833 350.167,290.167 347.5,295.5C 343.237,293.088 339.071,290.421 335,287.5C 298.75,340.159 248.583,364.325 184.5,360C 175.357,359.571 166.357,358.238 157.5,356C 155.34,355.004 153.673,353.504 152.5,351.5C 189.79,362.324 226.457,360.49 262.5,346C 326.229,315.419 358.229,264.586 358.5,193.5 Z"/></g>
<g><path style="opacity:1" fill="#c27523" d="M 91.5,233.5 C 104.396,273.394 131.062,299.061 171.5,310.5C 170.974,312.23 169.974,313.564 168.5,314.5C 127.783,302.659 100.783,276.659 87.5,236.5C 88.795,235.512 90.1283,234.512 91.5,233.5 Z"/></g>
<g><path style="opacity:1" fill="#c57724" d="M 91.5,233.5 C 94.2282,233.171 96.5615,233.837 98.5,235.5C 111.157,270.157 135.157,292.823 170.5,303.5C 172.375,305.594 172.708,307.928 171.5,310.5C 131.062,299.061 104.396,273.394 91.5,233.5 Z"/></g>
<g><path style="opacity:1" fill="#d17f27" d="M 122.5,233.5 C 125.497,238.825 128.497,244.159 131.5,249.5C 128.21,251.091 124.877,252.757 121.5,254.5C 118.862,249.517 116.195,244.517 113.5,239.5C 116.544,237.436 119.544,235.436 122.5,233.5 Z"/></g>
<g><path style="opacity:1" fill="#d17f27" d="M 276.5,234.5 C 279.83,236.162 283.164,237.828 286.5,239.5C 283.805,244.517 281.138,249.517 278.5,254.5C 274.856,253.345 271.523,251.678 268.5,249.5C 271.138,244.517 273.805,239.517 276.5,234.5 Z"/></g>
<g><path style="opacity:1" fill="#c87925" d="M 98.5,235.5 C 101.324,237.8 103.157,240.8 104,244.5C 105.113,243.695 106.279,243.028 107.5,242.5C 109.912,247.659 112.579,252.659 115.5,257.5C 113.086,258.777 112.919,260.443 115,262.5C 128.994,280.789 147.16,293.622 169.5,301C 170.252,301.671 170.586,302.504 170.5,303.5C 135.157,292.823 111.157,270.157 98.5,235.5 Z"/></g>
<g><path style="opacity:1" fill="#c07422" d="M 87.5,236.5 C 100.783,276.659 127.783,302.659 168.5,314.5C 168.389,315.117 168.056,315.617 167.5,316C 165.167,316.667 162.833,316.667 160.5,316C 125.691,303.525 100.858,280.358 86,246.5C 85.3333,243.5 85.3333,240.5 86,237.5C 86.3826,236.944 86.8826,236.611 87.5,236.5 Z"/></g>
<g><path style="opacity:1" fill="#cd7d26" d="M 113.5,239.5 C 116.195,244.517 118.862,249.517 121.5,254.5C 120.833,254.833 120.167,255.167 119.5,255.5C 117.1,250.368 114.434,245.368 111.5,240.5C 111.842,239.662 112.508,239.328 113.5,239.5 Z"/></g>
<g><path style="opacity:1" fill="#cd7d26" d="M 286.5,239.5 C 287.5,239.833 288.167,240.5 288.5,241.5C 285.5,246.167 282.5,250.833 279.5,255.5C 278.833,255.5 278.5,255.167 278.5,254.5C 281.138,249.517 283.805,244.517 286.5,239.5 Z"/></g>
<g><path style="opacity:1" fill="#cb7b26" d="M 111.5,240.5 C 114.434,245.368 117.1,250.368 119.5,255.5C 118.486,256.674 117.153,257.34 115.5,257.5C 112.579,252.659 109.912,247.659 107.5,242.5C 108.833,241.833 110.167,241.167 111.5,240.5 Z"/></g>
<g><path style="opacity:1" fill="#cb7b26" d="M 288.5,241.5 C 290.153,241.66 291.486,242.326 292.5,243.5C 289.999,248.506 286.999,253.173 283.5,257.5C 281.847,257.34 280.514,256.674 279.5,255.5C 282.5,250.833 285.5,246.167 288.5,241.5 Z"/></g>
<g><path style="opacity:1" fill="#e48b2c" d="M 191.5,244.5 C 196.864,245.787 202.198,245.787 207.5,244.5C 207.5,249.167 207.5,253.833 207.5,258.5C 202.198,259.787 196.864,259.787 191.5,258.5C 191.5,253.833 191.5,249.167 191.5,244.5 Z"/></g>
<g><path style="opacity:1" fill="#e0892b" d="M 191.5,258.5 C 196.864,259.787 202.198,259.787 207.5,258.5C 207.5,259.167 207.5,259.833 207.5,260.5C 202.167,260.5 196.833,260.5 191.5,260.5C 191.5,259.833 191.5,259.167 191.5,258.5 Z"/></g>
<g><path style="opacity:1" fill="#a7641b" d="M 355.5,279.5 C 356.605,280.6 357.938,281.267 359.5,281.5C 356.833,286.833 354.167,292.167 351.5,297.5C 350.395,296.4 349.062,295.733 347.5,295.5C 350.167,290.167 352.833,284.833 355.5,279.5 Z"/></g>
<g><path style="opacity:1" fill="#c87925" d="M 259.5,290.5 C 255.983,292.424 252.316,294.091 248.5,295.5C 250.686,290.236 254.353,288.569 259.5,290.5 Z"/></g>
<g><path style="opacity:1" fill="#c57724" d="M 259.5,290.5 C 261.773,290.957 263.106,292.29 263.5,294.5C 259.167,297.669 254.5,300.336 249.5,302.5C 248.532,300.393 248.198,298.059 248.5,295.5C 252.316,294.091 255.983,292.424 259.5,290.5 Z"/></g>
<g><path style="opacity:1" fill="#c27523" d="M 263.5,294.5 C 265.262,295.262 266.262,296.596 266.5,298.5C 261.949,301.943 256.949,304.61 251.5,306.5C 249.896,305.713 249.229,304.38 249.5,302.5C 254.5,300.336 259.167,297.669 263.5,294.5 Z"/></g>
<g><path style="opacity:1" fill="#be7222" d="M 266.5,298.5 C 269.247,301.723 271.247,305.389 272.5,309.5C 272.158,310.338 271.492,310.672 270.5,310.5C 268.326,310.75 266.659,311.75 265.5,313.5C 265.158,314.338 264.492,314.672 263.5,314.5C 261.181,314.992 259.181,315.992 257.5,317.5C 255.276,314.06 253.276,310.393 251.5,306.5C 256.949,304.61 261.949,301.943 266.5,298.5 Z"/></g>
<g><path style="opacity:1" fill="#c87925" d="M 225.5,304.5 C 215.008,307.036 204.341,308.036 193.5,307.5C 195.148,306.073 197.148,305.24 199.5,305C 205.829,304.445 212.162,303.945 218.5,303.5C 221.025,303.503 223.359,303.837 225.5,304.5 Z"/></g>
<g><path style="opacity:1" fill="#c57724" d="M 225.5,304.5 C 227.796,305.733 229.13,307.733 229.5,310.5C 216.952,313.379 204.286,314.379 191.5,313.5C 191.259,311.102 191.926,309.102 193.5,307.5C 204.341,308.036 215.008,307.036 225.5,304.5 Z"/></g>
<g><path style="opacity:1" fill="#b86e20" d="M 272.5,309.5 C 274.863,312.549 276.863,315.882 278.5,319.5C 273.833,322.167 269.167,324.833 264.5,327.5C 261.499,325.203 259.499,322.203 258.5,318.5C 260.349,317.407 262.016,316.074 263.5,314.5C 264.492,314.672 265.158,314.338 265.5,313.5C 267.674,313.25 269.341,312.25 270.5,310.5C 271.492,310.672 272.158,310.338 272.5,309.5 Z"/></g>
<g><path style="opacity:1" fill="#c27523" d="M 229.5,310.5 C 229.634,312.292 229.301,313.958 228.5,315.5C 216.318,318.088 203.985,319.088 191.5,318.5C 191.5,316.833 191.5,315.167 191.5,313.5C 204.286,314.379 216.952,313.379 229.5,310.5 Z"/></g>
<g><path style="opacity:1" fill="#ba7120" d="M 270.5,310.5 C 269.341,312.25 267.674,313.25 265.5,313.5C 266.659,311.75 268.326,310.75 270.5,310.5 Z"/></g>
<g><path style="opacity:1" fill="#ba7120" d="M 263.5,314.5 C 262.016,316.074 260.349,317.407 258.5,318.5C 257.833,318.5 257.5,318.167 257.5,317.5C 259.181,315.992 261.181,314.992 263.5,314.5 Z"/></g>
<g><path style="opacity:1" fill="#bf7322" d="M 228.5,315.5 C 227.327,317.504 225.66,319.004 223.5,320C 218.166,320.567 212.833,321.067 207.5,321.5C 207.5,324.5 207.5,327.5 207.5,330.5C 202.167,330.5 196.833,330.5 191.5,330.5C 191.5,326.5 191.5,322.5 191.5,318.5C 203.985,319.088 216.318,318.088 228.5,315.5 Z"/></g>
<g><path style="opacity:1" fill="#b56c20" d="M 278.5,319.5 C 279.167,319.5 279.833,319.5 280.5,319.5C 275.684,323.293 270.35,326.293 264.5,328.5C 264.5,328.167 264.5,327.833 264.5,327.5C 269.167,324.833 273.833,322.167 278.5,319.5 Z"/></g>
<g><path style="opacity:1" fill="#b86e20" d="M 191.5,330.5 C 196.833,330.5 202.167,330.5 207.5,330.5C 207.5,334.5 207.5,338.5 207.5,342.5C 202.167,342.5 196.833,342.5 191.5,342.5C 191.5,338.5 191.5,334.5 191.5,330.5 Z"/></g>
<g><path style="opacity:1" fill="#b56c20" d="M 191.5,342.5 C 196.833,342.5 202.167,342.5 207.5,342.5C 207.5,343.167 207.833,343.5 208.5,343.5C 202.833,344.833 197.167,344.833 191.5,343.5C 191.5,343.167 191.5,342.833 191.5,342.5 Z"/></g>
<g><path style="opacity:1" fill="#a7641b" d="M 104.5,346.5 C 109.299,349.737 114.299,352.737 119.5,355.5C 118.4,356.605 117.733,357.938 117.5,359.5C 112.299,356.737 107.299,353.737 102.5,350.5C 102.989,349.005 103.655,347.671 104.5,346.5 Z"/></g>
</svg>
